<?xml version="1.0" standalone="no"?>
<!DOCTYPE svg PUBLIC "-//W3C//DTD SVG 20010904//EN"
 "http://www.w3.org/TR/2001/REC-SVG-20010904/DTD/svg10.dtd">
<svg version="1.0" xmlns="http://www.w3.org/2000/svg"
 width="736.000000pt" height="396.000000pt" viewBox="0 0 736.000000 396.000000"
 preserveAspectRatio="xMidYMid meet">

<g transform="translate(0.000000,396.000000) scale(0.100000,-0.100000)"
fill="#000000" stroke="none">
<path d="M0 1980 l0 -1980 3680 0 3680 0 0 1980 0 1980 -3680 0 -3680 0 0
-1980z m4583 -672 c131 -146 176 -203 168 -211 -6 -6 -44 -11 -84 -11 -55 0
-83 5 -119 23 -63 30 -132 108 -154 174 -25 72 -22 229 4 226 4 0 87 -91 185
-201z m-41 117 c10 -4 15 -11 13 -16 -3 -5 6 -11 20 -15 14 -3 24 -9 21 -11
-7 -8 20 -33 35 -33 7 0 9 -3 6 -6 -11 -11 14 -46 28 -40 9 3 12 0 9 -8 -3 -7
2 -19 10 -26 9 -7 13 -16 10 -21 -3 -5 0 -9 5 -9 6 0 11 -8 11 -18 0 -10 3
-23 8 -28 16 -23 -127 127 -177 185 -51 59 -51 69 1 46z m-164 -153 c32 -91
103 -161 195 -194 l52 -19 -40 4 c-22 3 -53 12 -70 21 -16 9 -36 16 -42 16 -7
0 -12 6 -10 13 1 6 -4 11 -11 9 -8 -1 -11 2 -7 8 3 5 0 10 -7 10 -12 0 -28 21
-70 90 -8 14 -15 40 -16 58 0 18 -3 48 -6 65 -5 31 -5 31 6 -3 5 -19 17 -54
26 -78z m1451 3 c28 -151 -51 -307 -194 -383 -45 -24 -60 -27 -155 -27 -90 0
-111 3 -147 23 -50 26 -115 81 -111 93 2 4 133 91 293 193 194 124 292 181
296 173 4 -7 12 -39 18 -72z m-108 54 c-20 -16 -318 -208 -435 -279 -38 -23
-38 -23 -27 -2 7 12 16 22 22 22 6 0 8 4 5 8 -2 4 12 22 32 40 44 37 160 122
168 122 3 0 25 14 49 30 24 17 48 30 52 30 5 0 28 9 51 20 24 12 47 18 52 15
6 -3 10 -2 10 2 0 5 10 9 23 10 l22 2 -24 -20z m158 -164 c1 -72 -42 -176 -88
-211 -8 -7 -11 -16 -6 -24 5 -9 4 -11 -4 -6 -6 4 -22 -5 -37 -23 -14 -17 -30
-31 -35 -31 -6 0 -22 -9 -37 -20 -41 -29 -147 -53 -212 -47 -65 6 -144 38
-178 73 -21 20 -22 23 -6 18 10 -4 24 -10 29 -15 6 -4 37 -15 69 -24 133 -39
289 4 377 103 67 75 93 141 98 247 4 89 4 90 17 50 7 -22 13 -62 13 -90z
m-1643 48 c27 -38 69 -90 94 -118 76 -83 73 -73 40 -152 -32 -76 -60 -192 -60
-249 0 -19 -4 -34 -9 -34 -16 0 -68 101 -96 185 -21 63 -28 106 -32 201 -5
106 2 234 12 234 2 0 25 -30 51 -67z m246 -270 c21 -18 69 -54 108 -79 38 -26
70 -53 70 -60 0 -20 -91 -358 -99 -366 -10 -12 -129 73 -190 135 l-54 56 7 72
c8 89 29 172 61 246 28 62 22 62 97 -4z m1347 -190 c-88 -156 -173 -256 -279
-329 -38 -26 -72 -45 -75 -42 -3 3 2 38 11 79 9 41 17 115 18 165 l1 91 85 22
c47 13 126 37 175 55 50 18 91 29 93 24 2 -4 -11 -34 -29 -65z m-971 -19 c42
-14 117 -31 165 -38 48 -8 90 -15 92 -18 4 -4 -73 -379 -80 -386 -7 -7 -242
38 -295 57 -76 26 -148 60 -155 71 -5 8 63 292 90 377 3 8 20 4 55 -13 28 -13
86 -36 128 -50z m629 -131 c-3 -60 -13 -138 -22 -175 l-17 -68 -79 -25 c-134
-42 -328 -62 -316 -32 2 6 22 93 43 193 l38 181 115 7 c64 4 134 11 156 15 22
5 51 9 64 10 l24 1 -6 -107z"/>
</g>
</svg>
